# xmcd
#
# Track frame offsets:
#       150
#       16947
#       33194
#       49423
#       67802
#       83710
#       104846
#       123274
#       146121
#       159375
#       178263
#       200288
#       224023
#       237218
#       250538
#       259587
#
# Disc length: 3604 seconds
#
# Revision: 0
# Processed by: cddbd v1.5.2PL0 Copyright (c) Steve Scherf et al.
# Submitted via: WaveLab 4.01
#
DISCID=de0e1210
DTITLE=Robbie Lane - Doin' It Righteous
DYEAR=2002
DGENRE=Oldies
TTITLE0=BareFootin'
TTITLE1=Buzzard Luck
TTITLE2=Any Other Way
TTITLE3=Mojo
TTITLE4=Good Rockin, Tonight
TTITLE5=I Wanta Love You
TTITLE6=You Broke My Spirit
TTITLE7=Blue Light Boogie
TTITLE8=Fannie Mae
TTITLE9=Whole Lotta Shakin
TTITLE10=Walkin' The Dog
TTITLE11=Bo Diddly
TTITLE12=Misty
TTITLE13=Day Becomes Night
TTITLE14=You Know I Know
TTITLE15=A Little While Ago
EXTD=
EXTT0=
EXTT1=
EXTT2=
EXTT3=
EXTT4=
EXTT5=
EXTT6=
EXTT7=
EXTT8=
EXTT9=
EXTT10=
EXTT11=
EXTT12=
EXTT13=
EXTT14=
EXTT15=
PLAYORDER=
